<?xml version="1.0" encoding="iso-8859-1"?>
<!-- Generator: Adobe Illustrator 19.0.0, SVG Export Plug-In . SVG Version: 6.00 Build 0)  -->
<svg version="1.1" id="Capa_1" xmlns="http://www.w3.org/2000/svg" xmlns:xlink="http://www.w3.org/1999/xlink" x="0px" y="0px"
	 viewBox="0 0 464 464" style="enable-background:new 0 0 464 464;" xml:space="preserve">
<path style="fill:#CCCCCC;" d="M48,392H24c-13.255,0-24-10.745-24-24V24C0,10.745,10.745,0,24,0h368c13.255,0,24,10.745,24,24v344
	c0,13.255-10.745,24-24,24H48z"/>
<path style="fill:#E6E6E6;" d="M88,424H64c-13.255,0-24-10.745-24-24V64c0-13.255,10.745-24,24-24h352c13.255,0,24,10.745,24,24v336
	c0,13.255-10.745,24-24,24H88z"/>
<path style="fill:#0071BC;" d="M64,40h352c13.255,0,24,10.745,24,24v40l0,0H40l0,0V64C40,50.745,50.745,40,64,40z"/>
<path style="fill:#DA4836;" d="M64,64h16v16H64V64z"/>
<path style="fill:#F8CF26;" d="M96,64h16v16H96V64z"/>
<path style="fill:#3DBF50;" d="M128,64h16v16h-16V64z"/>
<path style="fill:#29ABE2;" d="M400,272L400,272c35.346,0,64,28.654,64,64v64c0,35.346-28.654,64-64,64l0,0
	c-35.346,0-64-28.654-64-64v-64C336,300.654,364.654,272,400,272z"/>
<path style="fill:#0071BC;" d="M400,312L400,312c8.837,0,16,7.163,16,16v24c0,8.837-7.163,16-16,16l0,0c-8.837,0-16-7.163-16-16v-24
	C384,319.163,391.163,312,400,312z"/>
<path style="fill:#FBB03B;" d="M434.544,402.952c-1.648,8.191-6.257,15.487-12.944,20.496l-1.256,0.944
	c-12.071,9.048-28.665,9.048-40.736,0l-1.256-0.944c-6.678-5.013-11.278-12.309-12.92-20.496
	c-2.91-14.426-14.806-25.32-29.432-26.952v23.664c0,35.346,28.654,64,64,64s64-28.654,64-64V376
	C449.365,377.623,437.457,388.518,434.544,402.952L434.544,402.952z"/>
<path style="fill:#DA4836;" d="M80,144h160v128H80V144z"/>
<path style="fill:#F2F2F2;" d="M128,176v64l80-32L128,176z"/>
<g>
	<path style="fill:#999999;" d="M272,168h136v16H272V168z"/>
	<path style="fill:#999999;" d="M272,200h136v16H272V200z"/>
	<path style="fill:#999999;" d="M272,232h96v16h-96V232z"/>
	<path style="fill:#999999;" d="M328,136h80v16h-80V136z"/>
	<path style="fill:#999999;" d="M296,136h16v16h-16V136z"/>
	<path style="fill:#999999;" d="M72,344h232v16H72V344z"/>
	<path style="fill:#999999;" d="M72,376h232v16H72V376z"/>
	<path style="fill:#999999;" d="M128,312h176v16H128V312z"/>
	<path style="fill:#999999;" d="M96,312h16v16H96V312z"/>
</g>
<g>
</g>
<g>
</g>
<g>
</g>
<g>
</g>
<g>
</g>
<g>
</g>
<g>
</g>
<g>
</g>
<g>
</g>
<g>
</g>
<g>
</g>
<g>
</g>
<g>
</g>
<g>
</g>
<g>
</g>
</svg>
