<?xml version="1.0" encoding="iso-8859-1"?>
<!-- Generator: Adobe Illustrator 19.0.0, SVG Export Plug-In . SVG Version: 6.00 Build 0)  -->
<svg version="1.1" id="Capa_1" xmlns="http://www.w3.org/2000/svg" xmlns:xlink="http://www.w3.org/1999/xlink" x="0px" y="0px"
	 viewBox="0 0 464 464" style="enable-background:new 0 0 464 464;" xml:space="preserve">
<path style="fill:#29ABE2;" d="M312,56h104c22.091,0,40,17.909,40,40v248c0,22.091-17.909,40-40,40H48c-22.091,0-40-17.909-40-40V96
	c0-22.091,17.909-40,40-40H312z"/>
<path style="fill:#B3B3B3;" d="M296,432l-16.016-48h-95.968L168,432H296z"/>
<g>
	<path style="fill:#0071BC;" d="M40,120h72v16H40V120z"/>
	<path style="fill:#0071BC;" d="M40,152h48v16H40V152z"/>
	<path style="fill:#0071BC;" d="M72,88h40v16H72V88z"/>
	<path style="fill:#0071BC;" d="M40,88h16v16H40V88z"/>
</g>
<g>
	<path style="fill:#FBB03B;" d="M40,272h16v16H40V272z"/>
	<path style="fill:#FBB03B;" d="M72,272h16v16H72V272z"/>
	<path style="fill:#FBB03B;" d="M104,272h16v16h-16V272z"/>
	<path style="fill:#FBB03B;" d="M408,272h16v16h-16V272z"/>
	<path style="fill:#FBB03B;" d="M376,272h16v16h-16V272z"/>
	<path style="fill:#FBB03B;" d="M344,272h16v16h-16V272z"/>
</g>
<g>
	<path style="fill:#0071BC;" d="M352,120h72v16h-72V120z"/>
	<path style="fill:#0071BC;" d="M352,152h48v16h-48V152z"/>
	<path style="fill:#0071BC;" d="M384,88h40v16h-40V88z"/>
	<path style="fill:#0071BC;" d="M352,88h16v16h-16V88z"/>
</g>
<g>
	<path style="fill:#E6E6E6;" d="M72,432h320c8.837,0,16,7.163,16,16l0,0c0,8.837-7.163,16-16,16H72c-8.837,0-16-7.163-16-16l0,0
		C56,439.163,63.163,432,72,432z"/>
	<path style="fill:#E6E6E6;" d="M8,320h448l0,0v24c0,22.091-17.909,40-40,40H48c-22.091,0-40-17.909-40-40V320L8,320z"/>
</g>
<path style="fill:#B3B3B3;" d="M224.016,344h16v16h-16L224.016,344z"/>
<g>
	<path style="fill:#80CAEC;" d="M186.928,261l-8.88-13.312L208,227.72V160h16v72c0,2.674-1.335,5.172-3.56,6.656L186.928,261z"/>
	<path style="fill:#80CAEC;" d="M274.072,242.992l-30.512-20.336c-2.225-1.484-3.56-3.982-3.56-6.656v-56h16v51.72l26.944,17.96
		L274.072,242.992z"/>
	<path style="fill:#80CAEC;" d="M356.424,227.2l-56-28c-2.725-1.362-4.441-4.153-4.424-7.2v-72h16v67.056l51.576,25.784
		L356.424,227.2z"/>
	<path style="fill:#80CAEC;" d="M104.432,226.952l-5.064-15.2L152,194.232V120h16v80c-0.003,3.442-2.206,6.496-5.472,7.584
		L104.432,226.952z"/>
</g>
<g>
	<circle style="fill:#F7931E;" cx="176" cy="264" r="24"/>
	<circle style="fill:#F7931E;" cx="288" cy="248" r="24"/>
	<circle style="fill:#F7931E;" cx="376" cy="216" r="24"/>
	<circle style="fill:#F7931E;" cx="88" cy="216" r="24"/>
</g>
<circle style="fill:#FBB03B;" cx="232" cy="88" r="88"/>
<g>
	<path style="fill:#F15A24;" d="M224,51.312V104h16V51.312l18.344,18.344l11.312-11.312l-32-32c-3.124-3.123-8.188-3.123-11.312,0
		l-32,32l11.312,11.312L224,51.312z"/>
	<path style="fill:#F15A24;" d="M264,104v16h-64v-16h-16v24c0,4.418,3.582,8,8,8h80c4.418,0,8-3.582,8-8v-24H264z"/>
</g>
<g>
</g>
<g>
</g>
<g>
</g>
<g>
</g>
<g>
</g>
<g>
</g>
<g>
</g>
<g>
</g>
<g>
</g>
<g>
</g>
<g>
</g>
<g>
</g>
<g>
</g>
<g>
</g>
<g>
</g>
</svg>
