<?xml version="1.0" encoding="iso-8859-1"?>
<!-- Generator: Adobe Illustrator 19.0.0, SVG Export Plug-In . SVG Version: 6.00 Build 0)  -->
<svg version="1.1" id="Capa_1" xmlns="http://www.w3.org/2000/svg" xmlns:xlink="http://www.w3.org/1999/xlink" x="0px" y="0px"
	 viewBox="0 0 464 464" style="enable-background:new 0 0 464 464;" xml:space="preserve">
<path style="fill:#CCCCCC;" d="M448,416V48c0-13.255-10.745-24-24-24H40c-13.255,0-24,10.745-24,24v368H448z"/>
<path style="fill:#999999;" d="M464,392v24c0,13.255-10.745,24-24,24l0,0H24c-13.255,0-24-10.745-24-24l0,0v-24h160l16,16h112l16-16
	H464z"/>
<path style="fill:#F2F2F2;" d="M224,368h16v16h-16V368z"/>
<path style="fill:#29ABE2;" d="M96,344H72c-13.255,0-24-10.745-24-24V80c0-13.255,10.745-24,24-24h320c13.255,0,24,10.745,24,24v240
	c0,13.255-10.745,24-24,24H96z"/>
<path style="fill:#0071BC;" d="M72,56h320c13.255,0,24,10.745,24,24v40l0,0H48l0,0V80C48,66.745,58.745,56,72,56z"/>
<path style="fill:#DA4836;" d="M72,80h16v16H72V80z"/>
<path style="fill:#F8CF26;" d="M104,80h16v16h-16V80z"/>
<path style="fill:#3DBF50;" d="M136,80h16v16h-16V80z"/>
<path style="fill:#DA4836;" d="M88,160h152v112H88V160z"/>
<g>
	<path style="fill:#0071BC;" d="M80,296h16v16H80V296z"/>
	<path style="fill:#0071BC;" d="M112,296h136v16H112V296z"/>
</g>
<path style="fill:#F2F2F2;" d="M136,192v48l56-24L136,192z"/>
<path style="fill:#0071BC;" d="M368,272l8,72h-96l8-72H368z"/>
<path style="fill:#E6E6E6;" d="M360,272v-24l16-32l-48-56l-48,56l16,32v24"/>
<g>
	<path style="fill:#808080;" d="M320,232h16v40h-16V232z"/>
	<path style="fill:#808080;" d="M320,200h16v16h-16V200z"/>
</g>
<path style="fill:#FBB03B;" d="M370.664,296H312v16h60.448L370.664,296z"/>
<g>
</g>
<g>
</g>
<g>
</g>
<g>
</g>
<g>
</g>
<g>
</g>
<g>
</g>
<g>
</g>
<g>
</g>
<g>
</g>
<g>
</g>
<g>
</g>
<g>
</g>
<g>
</g>
<g>
</g>
</svg>
