<svg data-v-fde0c5aa="" xmlns="http://www.w3.org/2000/svg" viewBox="0 0 300 300" class="iconAbove"><!----><defs data-v-fde0c5aa=""><!----></defs><rect data-v-fde0c5aa="" fill="#B0BDA2" x="0" y="0" width="300px" height="300px" class="logo-background-square"></rect><defs data-v-fde0c5aa=""><!----></defs><g data-v-fde0c5aa="" id="266b0326-5ae6-4de8-bc2b-33cd6574582f" fill="#FFFFFF" transform="matrix(3.8980511528621897,0,0,3.8980511528621897,15.088455584568354,163.73613088678732)"><path d="M3.30 10.70L3.30 10.70L3.30 10.70Q3.30 11.03 3.65 11.18L3.65 11.18L3.65 11.18Q4.00 11.33 4.93 11.42L4.93 11.42L4.93 11.42Q5.99 11.54 6.66 12.06L6.66 12.06L6.66 12.06Q7.34 12.59 7.34 13.52L7.34 13.52L7.34 13.61L7.34 13.61Q7.34 14.64 6.58 15.26L6.58 15.26L6.58 15.26Q5.82 15.88 4.45 15.88L4.45 15.88L4.45 15.88Q3.64 15.88 3.07 15.67L3.07 15.67L3.07 15.67Q2.49 15.46 2.11 15.14L2.11 15.14L2.11 15.14Q1.74 14.83 1.53 14.44L1.53 14.44L1.53 14.44Q1.33 14.06 1.26 13.69L1.26 13.69L2.88 13.16L2.88 13.16Q3.00 13.61 3.35 13.94L3.35 13.94L3.35 13.94Q3.71 14.28 4.45 14.28L4.45 14.28L4.45 14.28Q5.11 14.28 5.36 14.08L5.36 14.08L5.36 14.08Q5.60 13.87 5.60 13.64L5.60 13.64L5.60 13.64Q5.60 13.50 5.54 13.38L5.54 13.38L5.54 13.38Q5.47 13.26 5.31 13.15L5.31 13.15L5.31 13.15Q5.14 13.05 4.85 12.98L4.85 12.98L4.85 12.98Q4.56 12.91 4.13 12.87L4.13 12.87L4.13 12.87Q2.95 12.77 2.26 12.26L2.26 12.26L2.26 12.26Q1.57 11.75 1.57 10.75L1.57 10.75L1.57 10.67L1.57 10.67Q1.57 10.15 1.79 9.76L1.79 9.76L1.79 9.76Q2.02 9.37 2.38 9.09L2.38 9.09L2.38 9.09Q2.74 8.82 3.22 8.68L3.22 8.68L3.22 8.68Q3.70 8.54 4.20 8.54L4.20 8.54L4.20 8.54Q4.86 8.54 5.34 8.70L5.34 8.70L5.34 8.70Q5.82 8.86 6.16 9.12L6.16 9.12L6.16 9.12Q6.50 9.38 6.71 9.70L6.71 9.70L6.71 9.70Q6.92 10.01 7.03 10.30L7.03 10.30L5.43 10.95L5.43 10.95Q5.31 10.57 5.00 10.35L5.00 10.35L5.00 10.35Q4.69 10.14 4.20 10.14L4.20 10.14L4.20 10.14Q3.75 10.14 3.53 10.30L3.53 10.30L3.53 10.30Q3.30 10.46 3.30 10.70ZM9.79 15.68L9.79 14L12.14 14L12.14 10.42L9.95 10.42L9.95 8.74L13.90 8.74L13.90 14L15.92 14L15.92 15.68L9.79 15.68ZM14.34 6.68L14.34 6.68L14.34 6.68Q14.34 6.96 14.23 7.20L14.23 7.20L14.23 7.20Q14.13 7.45 13.94 7.62L13.94 7.62L13.94 7.62Q13.76 7.80 13.52 7.90L13.52 7.90L13.52 7.90Q13.27 8.01 13.01 8.01L13.01 8.01L13.01 8.01Q12.73 8.01 12.49 7.90L12.49 7.90L12.49 7.90Q12.25 7.80 12.07 7.62L12.07 7.62L12.07 7.62Q11.89 7.45 11.78 7.20L11.78 7.20L11.78 7.20Q11.68 6.96 11.68 6.68L11.68 6.68L11.68 6.68Q11.68 6.40 11.78 6.15L11.78 6.15L11.78 6.15Q11.89 5.91 12.07 5.73L12.07 5.73L12.07 5.73Q12.25 5.56 12.49 5.45L12.49 5.45L12.49 5.45Q12.73 5.35 13.01 5.35L13.01 5.35L13.01 5.35Q13.27 5.35 13.52 5.45L13.52 5.45L13.52 5.45Q13.76 5.56 13.94 5.73L13.94 5.73L13.94 5.73Q14.13 5.91 14.23 6.15L14.23 6.15L14.23 6.15Q14.34 6.40 14.34 6.68ZM23.18 16.38L23.18 14.67L22.93 14.67L22.93 14.67Q22.82 14.91 22.66 15.13L22.66 15.13L22.66 15.13Q22.50 15.34 22.24 15.51L22.24 15.51L22.24 15.51Q21.98 15.68 21.62 15.78L21.62 15.78L21.62 15.78Q21.27 15.88 20.76 15.88L20.76 15.88L20.76 15.88Q20.12 15.88 19.56 15.64L19.56 15.64L19.56 15.64Q19.01 15.41 18.60 14.96L18.60 14.96L18.60 14.96Q18.19 14.50 17.95 13.85L17.95 13.85L17.95 13.85Q17.72 13.19 17.72 12.33L17.72 12.33L17.72 12.08L17.72 12.08Q17.72 11.24 17.97 10.58L17.97 10.58L17.97 10.58Q18.21 9.93 18.64 9.47L18.64 9.47L18.64 9.47Q19.07 9.02 19.63 8.78L19.63 8.78L19.63 8.78Q20.20 8.54 20.83 8.54L20.83 8.54L20.83 8.54Q21.67 8.54 22.16 8.86L22.16 8.86L22.16 8.86Q22.65 9.17 22.93 9.74L22.93 9.74L23.18 9.74L23.18 8.74L24.95 8.74L24.95 17.39L24.95 17.39Q24.95 17.86 24.65 18.17L24.65 18.17L24.65 18.17Q24.35 18.48 23.87 18.48L23.87 18.48L19.19 18.48L19.19 16.80L22.81 16.80L22.81 16.80Q23.18 16.80 23.18 16.38L23.18 16.38ZM21.34 14.20L21.34 14.20L21.34 14.20Q22.16 14.20 22.67 13.67L22.67 13.67L22.67 13.67Q23.18 13.15 23.18 12.29L23.18 12.29L23.18 12.12L23.18 12.12Q23.18 11.27 22.67 10.74L22.67 10.74L22.67 10.74Q22.16 10.22 21.34 10.22L21.34 10.22L21.34 10.22Q20.51 10.22 20.00 10.73L20.00 10.73L20.00 10.73Q19.49 11.24 19.49 12.12L19.49 12.12L19.49 12.29L19.49 12.29Q19.49 13.17 20.00 13.68L20.00 13.68L20.00 13.68Q20.51 14.20 21.34 14.20ZM28.56 12.07L28.56 15.68L26.80 15.68L26.80 8.74L28.56 8.74L28.56 9.77L28.81 9.77L28.81 9.77Q29.05 9.18 29.58 8.86L29.58 8.86L29.58 8.86Q30.11 8.54 30.83 8.54L30.83 8.54L30.83 8.54Q31.33 8.54 31.77 8.70L31.77 8.70L31.77 8.70Q32.21 8.86 32.55 9.20L32.55 9.20L32.55 9.20Q32.89 9.53 33.08 10.05L33.08 10.05L33.08 10.05Q33.26 10.57 33.26 11.28L33.26 11.28L33.26 15.68L31.50 15.68L31.50 11.73L31.50 11.73Q31.50 10.99 31.14 10.56L31.14 10.56L31.14 10.56Q30.79 10.14 30.11 10.14L30.11 10.14L30.11 10.14Q29.33 10.14 28.95 10.66L28.95 10.66L28.95 10.66Q28.56 11.19 28.56 12.07L28.56 12.07ZM40.11 14.67L39.86 14.67L39.86 14.67Q39.58 15.33 39.07 15.60L39.07 15.60L39.07 15.60Q38.57 15.88 37.90 15.88L37.90 15.88L37.90 15.88Q37.27 15.88 36.71 15.64L36.71 15.64L36.71 15.64Q36.16 15.40 35.74 14.94L35.74 14.94L35.74 14.94Q35.32 14.48 35.08 13.82L35.08 13.82L35.08 13.82Q34.83 13.16 34.83 12.32L34.83 12.32L34.83 12.10L34.83 12.10Q34.83 11.27 35.07 10.61L35.07 10.61L35.07 10.61Q35.31 9.95 35.71 9.49L35.71 9.49L35.71 9.49Q36.12 9.03 36.66 8.79L36.66 8.79L36.66 8.79Q37.20 8.54 37.81 8.54L37.81 8.54L37.81 8.54Q38.56 8.54 39.01 8.79L39.01 8.79L39.01 8.79Q39.47 9.04 39.73 9.58L39.73 9.58L39.98 9.58L39.98 8.74L41.75 8.74L41.75 13.58L41.75 13.58Q41.75 14 42.13 14L42.13 14L42.39 14L42.39 15.68L41.19 15.68L41.19 15.68Q40.71 15.68 40.41 15.40L40.41 15.40L40.41 15.40Q40.11 15.12 40.11 14.67L40.11 14.67ZM38.29 14.20L38.29 14.20L38.29 14.20Q39.06 14.20 39.52 13.68L39.52 13.68L39.52 13.68Q39.98 13.17 39.98 12.29L39.98 12.29L39.98 12.12L39.98 12.12Q39.98 11.24 39.52 10.73L39.52 10.73L39.52 10.73Q39.06 10.22 38.29 10.22L38.29 10.22L38.29 10.22Q37.52 10.22 37.06 10.73L37.06 10.73L37.06 10.73Q36.60 11.24 36.60 12.12L36.60 12.12L36.60 12.29L36.60 12.29Q36.60 13.17 37.06 13.68L37.06 13.68L37.06 13.68Q37.52 14.20 38.29 14.20ZM43.89 15.68L43.89 14L46.33 14L46.33 7.56L43.97 7.56L43.97 5.88L48.09 5.88L48.09 14L50.36 14L50.36 15.68L43.89 15.68ZM52.33 13.92L55.10 13.92L55.10 6.80L54.85 6.80L53.93 10.16L52.16 10.16L52.16 10.00L53.34 5.88L56.95 5.88L56.95 13.92L59.39 13.92L59.39 15.68L52.33 15.68L52.33 13.92ZM60.90 13.92L63.67 13.92L63.67 6.80L63.42 6.80L62.50 10.16L60.73 10.16L60.73 10.00L61.91 5.88L65.52 5.88L65.52 13.92L67.96 13.92L67.96 15.68L60.90 15.68L60.90 13.92Z"></path></g><defs data-v-fde0c5aa=""><!----></defs><g data-v-fde0c5aa="" id="f13c674a-6977-4cfb-a98a-43a5e6549259" stroke="none" fill="#29474A" transform="matrix(3.1988380228566147,0,0,3.1988380228566147,98.81859163429417,64.22788745144125)"><path d="M15.965 16.258l.707-.707 10.39 10.39-.707.707z"></path><path d="M4.935 26.357L26.018 5.274l.707.707L5.642 27.065z"></path><path d="M31 1v4.194h-4.194V1H31m1-1h-6.194v6.194H32V0zM31 26.806V31h-4.194v-4.194H31m1-1h-6.194V32H32v-6.194zM5.194 26.806V31H1v-4.194h4.194m1-1H0V32h6.194v-6.194z"></path></g><!----></svg>