<?xml version="1.0" standalone="no"?>
<!DOCTYPE svg PUBLIC "-//W3C//DTD SVG 20010904//EN"
 "http://www.w3.org/TR/2001/REC-SVG-20010904/DTD/svg10.dtd">
<svg version="1.0" xmlns="http://www.w3.org/2000/svg"
 width="2560.000000pt" height="2560.000000pt" viewBox="0 0 2560.000000 2560.000000"
 preserveAspectRatio="xMidYMid meet">

<g transform="translate(0.000000,2560.000000) scale(0.100000,-0.100000)"
fill="#000000" stroke="none">
<path d="M9068 18336 c-89 -26 -138 -56 -203 -123 -61 -64 -90 -115 -115 -204
l-20 -74 0 -4502 c0 -4036 2 -4509 16 -4569 22 -96 58 -160 128 -229 74 -72
151 -112 252 -128 l73 -11 3 -571 c3 -634 1 -613 71 -655 32 -20 78 -20 3525
-20 3060 0 3497 2 3522 15 15 8 38 30 49 48 21 34 21 43 21 611 l0 576 33 0
c49 0 144 27 199 57 110 60 192 161 222 275 16 58 17 401 14 4624 l-3 4560
-37 75 c-64 130 -172 216 -314 253 -56 14 -413 16 -3710 15 l-3649 0 -77 -23z
m7408 -285 c23 -10 54 -36 70 -57 l29 -37 0 -4526 0 -4526 -24 -39 c-15 -24
-40 -45 -65 -57 -40 -18 -154 -19 -3691 -19 l-3650 0 -39 23 c-25 14 -48 39
-63 66 l-23 44 0 4499 c0 4026 2 4503 15 4535 21 50 42 72 90 94 39 18 169 19
3675 19 3529 0 3636 -1 3676 -19z m-368 -10033 l-3 -483 -3305 0 -3305 0 -3
483 -2 482 3310 0 3310 0 -2 -482z"/>
<path d="M10242 16949 c-101 -17 -193 -86 -236 -178 l-21 -46 0 -1965 0 -1965
25 -49 c32 -62 84 -114 146 -146 l49 -25 2573 -3 c2931 -3 2645 -11 2743 87
40 40 62 73 78 114 l21 58 -2 1947 -3 1947 -27 52 c-52 99 -125 152 -233 172
-73 14 -5032 13 -5113 0z m2196 -2093 c2 -953 5 -1212 15 -1218 6 -5 65 -8
130 -7 65 1 121 -1 124 -5 4 -3 8 -17 9 -31 l3 -25 -670 0 -670 0 3 31 3 31
166 -1 c91 -1 173 1 182 5 16 6 17 86 17 1144 0 627 -3 1141 -8 1144 -4 2 -63
-3 -132 -11 -69 -8 -152 -16 -185 -17 l-60 -1 -3 33 c-2 17 -2 32 0 32 2 0
100 13 218 30 118 16 269 37 335 46 66 9 140 19 165 24 25 4 115 7 200 7 l155
-2 3 -1209z m1492 6 c0 -926 3 -1211 12 -1220 8 -8 54 -12 140 -12 l128 0 0
-30 0 -30 -671 0 -670 0 3 28 3 27 180 5 180 5 3 1148 2 1149 -37 -6 c-41 -6
-179 -23 -280 -33 -61 -6 -62 -5 -69 21 -3 15 -3 31 2 36 11 11 122 28 519 81
88 11 180 24 205 29 25 4 114 8 198 9 l152 1 0 -1208z"/>
<path d="M9820 10525 l0 -155 155 0 155 0 0 155 0 155 -155 0 -155 0 0 -155z"/>
<path d="M12800 10525 l0 -155 1410 0 1410 0 0 155 0 155 -1410 0 -1410 0 0
-155z"/>
</g>
</svg>
